<?xml version="1.0" encoding="UTF-8"?>
<svg id="Layer_1" xmlns="http://www.w3.org/2000/svg" version="1.1" viewBox="0 0 161 20">
  <!-- Generator: Adobe Illustrator 29.1.0, SVG Export Plug-In . SVG Version: 2.1.0 Build 142)  -->
  <defs>
    <style>
      .st0 {
        fill: #fff;
      }

      .st1 {
        fill: #fad646;
      }
    </style>
  </defs>
  <path class="st0" d="M9.7,4.5c-.7-1.3-1.6-2-3.1-2s-3,1.2-3,2.8,1.6,2.3,2.8,2.8l1.2.5c2.4,1,4.3,2.2,4.3,5.1s-2.5,5.6-5.7,5.6-5.1-1.9-5.6-4.7l2-.6c.3,1.8,1.7,3.4,3.6,3.4s3.7-1.5,3.7-3.5-1.7-2.8-3.3-3.6l-1.1-.5c-2.1-1-3.9-2-3.9-4.6,0-2.8,2.4-4.6,5.1-4.6s3.7,1,4.7,2.8l-1.6,1Z"/>
  <path class="st0" d="M20.7,11.7c0,1.3,0,2.9.8,4,.8,1.1,2.3,1.7,3.6,1.7s2.7-.6,3.6-1.6c1-1.2.9-2.7.9-4.1V.9h2v11.3c0,2-.1,3.5-1.6,5-1.2,1.3-3.1,2.1-4.9,2.1s-3.5-.7-4.7-1.8c-1.6-1.5-1.8-3.2-1.8-5.2V.9h2v10.8h0Z"/>
  <path class="st0" d="M38.7.2l14.1,14.8V.9h2v18.9l-14.1-14.8v13.9h-2V.2h0Z"/>
  <path class="st0" d="M64.4,2.8h.7c2.4,0,4.7.2,4.7,3.2s-1.9,3.3-4.1,3.3h-1.3V2.8ZM64.4,11.1h1.5c1.5,0,3.1-.2,4.3-1.2,1.1-.9,1.7-2.4,1.7-3.9s-.7-3.2-2-4.1c-1.3-.9-2.9-1-4.5-1h-3v18.1h2v-7.9h0Z"/>
  <path class="st0" d="M104.4,14.5L110.3,0l5.9,14.5,4.8-13.6h2.2l-6.9,19-5.9-14.6-5.9,14.6L97.5.9h2.2l4.8,13.6h0Z"/>
  <path class="st0" d="M127.6.9h9.4v1.9h-7.4v5.4h7.2v1.9h-7.2v7.1h7.4v1.9h-9.4V.9Z"/>
  <path class="st0" d="M145.8,2.8h.6c2.4,0,4.6.3,4.6,3.3s-2.3,3.2-4.6,3.2h-.6V2.8ZM145.8,11.1h.5l5.5,7.9h2.5l-5.8-8.1c2.8-.2,4.5-2.2,4.5-5,0-4.1-3.2-5-6.6-5h-2.6v18.1h2v-7.9h0Z"/>
  <path class="st0" d="M94.7,10c0,5.3-4.2,9.3-9.5,9.3s-9.4-4.2-9.4-9.2S80,.7,85.2.7s9.5,4,9.5,9.3h0ZM78,10.1c0,3.9,3.1,7.3,7.1,7.3s7.5-3.2,7.5-7.3-3.2-7.3-7.5-7.3-7.1,3.4-7.1,7.3Z"/>
  <path class="st0" d="M155.1,3.7c0-.5.1-.9.4-1.4.2-.4.6-.8,1-1,.4-.2.9-.4,1.4-.4s.9.1,1.4.4c.4.2.8.6,1,1,.2.4.4.9.4,1.4s-.1.9-.4,1.4c-.2.4-.6.8-1,1-.4.3-.9.4-1.4.4s-1-.1-1.4-.4c-.4-.3-.8-.6-1-1-.2-.4-.4-.9-.4-1.4h0ZM155.4,3.7c0,.4.1.8.3,1.2.2.4.5.7.9.9s.8.3,1.2.3.8-.1,1.2-.3.7-.5.9-.9c.2-.4.3-.8.3-1.2s-.1-.8-.3-1.2c-.2-.4-.5-.7-.9-.9-.4-.2-.8-.3-1.2-.3s-.8.1-1.2.3c-.4.2-.7.5-.9.9-.2.4-.3.8-.3,1.2h0ZM158.8,3c0,.2,0,.4-.1.5,0,.1-.2.3-.4.3l.9,1.4h-.4l-.8-1.3h-.6v1.3h-.4v-3.2h.8c.4,0,.6,0,.8.2.2.2.3.4.3.7ZM157.3,3.7h.4c.2,0,.4,0,.5-.2.1-.1.2-.3.2-.5,0-.4-.2-.6-.7-.6h-.4v1.3h0Z"/>
  <path class="st0" d="M9.7,4.5c-.7-1.3-1.6-2-3.1-2s-3,1.2-3,2.8,1.6,2.3,2.8,2.8l1.2.5c2.4,1,4.3,2.2,4.3,5.1s-2.5,5.6-5.7,5.6-5.1-1.9-5.6-4.7l2-.6c.3,1.8,1.7,3.4,3.6,3.4s3.7-1.5,3.7-3.5-1.7-2.8-3.3-3.6l-1.1-.5c-2.1-1-3.9-2-3.9-4.6,0-2.8,2.4-4.6,5.1-4.6s3.7,1,4.7,2.8l-1.6,1Z"/>
  <path class="st0" d="M20.7,11.7c0,1.3,0,2.9.8,4,.8,1.1,2.3,1.7,3.6,1.7s2.7-.6,3.6-1.6c1-1.2.9-2.7.9-4.1V.9h2v11.3c0,2-.1,3.5-1.6,5-1.2,1.3-3.1,2.1-4.9,2.1s-3.5-.7-4.7-1.8c-1.6-1.5-1.8-3.2-1.8-5.2V.9h2v10.8h0Z"/>
  <path class="st0" d="M38.7.2l14.1,14.8V.9h2v18.9l-14.1-14.8v13.9h-2V.2h0Z"/>
  <path class="st0" d="M64.4,2.8h.7c2.4,0,4.7.2,4.7,3.2s-1.9,3.3-4.1,3.3h-1.3V2.8ZM64.4,11.1h1.5c1.5,0,3.1-.2,4.3-1.2,1.1-.9,1.7-2.4,1.7-3.9s-.7-3.2-2-4.1c-1.3-.9-2.9-1-4.5-1h-3v18.1h2v-7.9h0Z"/>
  <path class="st0" d="M104.4,14.5L110.3,0l5.9,14.5,4.8-13.6h2.2l-6.9,19-5.9-14.6-5.9,14.6L97.5.9h2.2l4.8,13.6h0Z"/>
  <path class="st0" d="M127.6.9h9.4v1.9h-7.4v5.4h7.2v1.9h-7.2v7.1h7.4v1.9h-9.4V.9Z"/>
  <path class="st0" d="M145.8,2.8h.6c2.4,0,4.6.3,4.6,3.3s-2.3,3.2-4.6,3.2h-.6V2.8ZM145.8,11.1h.5l5.5,7.9h2.5l-5.8-8.1c2.8-.2,4.5-2.2,4.5-5,0-4.1-3.2-5-6.6-5h-2.6v18.1h2v-7.9h0Z"/>
  <path class="st1" d="M94.7,10c0,5.3-4.2,9.3-9.5,9.3s-9.4-4.2-9.4-9.2S80,.7,85.2.7s9.5,4,9.5,9.3h0ZM78,10.1c0,3.9,3.1,7.3,7.1,7.3s7.5-3.2,7.5-7.3-3.2-7.3-7.5-7.3-7.1,3.4-7.1,7.3Z"/>
  <path class="st0" d="M155.1,3.7c0-.5.1-.9.4-1.4.2-.4.6-.8,1-1,.4-.2.9-.4,1.4-.4s.9.1,1.4.4c.4.2.8.6,1,1,.2.4.4.9.4,1.4s-.1.9-.4,1.4c-.2.4-.6.8-1,1-.4.3-.9.4-1.4.4s-1-.1-1.4-.4c-.4-.3-.8-.6-1-1-.2-.4-.4-.9-.4-1.4h0ZM155.4,3.7c0,.4.1.8.3,1.2.2.4.5.7.9.9s.8.3,1.2.3.8-.1,1.2-.3.7-.5.9-.9c.2-.4.3-.8.3-1.2s-.1-.8-.3-1.2c-.2-.4-.5-.7-.9-.9-.4-.2-.8-.3-1.2-.3s-.8.1-1.2.3c-.4.2-.7.5-.9.9-.2.4-.3.8-.3,1.2h0ZM158.8,3c0,.2,0,.4-.1.5,0,.1-.2.3-.4.3l.9,1.4h-.4l-.8-1.3h-.6v1.3h-.4v-3.2h.8c.4,0,.6,0,.8.2.2.2.3.4.3.7ZM157.3,3.7h.4c.2,0,.4,0,.5-.2.1-.1.2-.3.2-.5,0-.4-.2-.6-.7-.6h-.4v1.3h0Z"/>
</svg>